# xmcd
#
# Track frame offsets: 
#        150
#        2414
#        21492
#        40798
#        56866
#        78357
#        89566
#        102397
#        119486
#        134931
#        177005
#        199913
#
# Disc length: 4440 seconds
#
# Revision: 2
# Processed by: cddbd v1.5.2PL0 Copyright (c) Steve Scherf et al.
# Submitted via: ExactAudioCopyFreeDBPlugin 1.0
#
DISCID=a811560c
DTITLE=אביב גפן - ממנטו מורי
DYEAR=2002
DGENRE=Ballad
TTITLE0=אינטרו
TTITLE1=זיגוטה
TTITLE2=קרן אור
TTITLE3=אין מלאכים בגן עדן
TTITLE4=הרואין
TTITLE5=מלח הדמעות
TTITLE6=ממנטו מורי 2
TTITLE7=הולך קדימה
TTITLE8=שיר עצוב
TTITLE9=חושך
TTITLE10=ממנטו מורי
TTITLE11=DATA
EXTD=ממנטו מורי
EXTT0=
EXTT1=
EXTT2=
EXTT3=
EXTT4=
EXTT5=
EXTT6=
EXTT7=
EXTT8=
EXTT9=
EXTT10=
EXTT11=
PLAYORDER=
